<svg width="512" height="512" viewBox="0 0 512 512" fill="none" xmlns="http://www.w3.org/2000/svg">
    <path fill-rule="evenodd" clip-rule="evenodd" d="M100 0H412C467.228 0 512 44.7715 512 100V412C512 467.228 467.228 512 412 512H100C44.7715 512 0 467.228 0 412V100C0 44.7715 44.7715 0 100 0ZM128 128H192V192H128V128ZM320 128H384V192H320V128ZM128 320H192V384H128V320ZM224 128H288V192H224V128ZM128 224H192V288H128V224ZM224 224H288V288H224V224ZM320 224H384V288H320V224ZM224 320H288V384H224V320ZM320 320H384V384H320V320Z" fill="black"/>
</svg> 